<svg width="12" height="12" viewBox="0 0 12 12" fill="none" xmlns="http://www.w3.org/2000/svg">
<path d="M6 8C6.93875 8 8.37597 8.23932 9.56543 8.71582C10.1595 8.95383 10.6604 9.23881 11.0049 9.55664C11.346 9.87149 11.5 10.1849 11.5 10.5V11.25C11.5 11.3864 11.3864 11.5 11.25 11.5H0.75C0.613642 11.5 0.5 11.3864 0.5 11.25V10.5C0.5 10.1849 0.653986 9.87149 0.995117 9.55664C1.33958 9.23881 1.84052 8.95383 2.43457 8.71582C3.62403 8.23932 5.06125 8 6 8ZM6 0.5C7.38136 0.5 8.5 1.61864 8.5 3C8.5 4.38136 7.38136 5.5 6 5.5C4.61864 5.5 3.5 4.38136 3.5 3C3.5 1.61864 4.61864 0.5 6 0.5Z"  stroke="black"/>
</svg>
