<svg xmlns:xlink="http://www.w3.org/1999/xlink" style="outline: 2px dashed black"
xmlns="http://www.w3.org/2000/svg"> 

<defs>

<symbol id="vector1" width="12" height="12" viewBox="0 0 12 12">
<path d="M6 8C6.93875 8 8.37597 8.23932 9.56543 8.71582C10.1595 8.95383 10.6604 9.23881 11.0049 9.55664C11.346 9.87149 11.5 10.1849 11.5 10.5V11.25C11.5 11.3864 11.3864 11.5 11.25 11.5H0.75C0.613642 11.5 0.5 11.3864 0.5 11.25V10.5C0.5 10.1849 0.653986 9.87149 0.995117 9.55664C1.33958 9.23881 1.84052 8.95383 2.43457 8.71582C3.62403 8.23932 5.06125 8 6 8ZM6 0.5C7.38136 0.5 8.5 1.61864 8.5 3C8.5 4.38136 7.38136 5.5 6 5.5C4.61864 5.5 3.5 4.38136 3.5 3C3.5 1.61864 4.61864 0.5 6 0.5Z"  />
</symbol>

<symbol id="vector2" width="14" height="14" viewBox="0 0 14 14">
<path d="M11.996 9.12261L10.1579 8.91275C9.71644 8.86209 9.28224 9.01406 8.97105 9.32524L7.63948 10.6568C5.59147 9.61472 3.91254 7.94301 2.87044 5.88775L4.20925 4.54894C4.52043 4.23775 4.6724 3.80355 4.62174 3.3621L4.41188 1.53842C4.32504 0.807499 3.70991 0.2575 2.97176 0.2575H1.71979C0.902035 0.2575 0.221776 0.937761 0.272434 1.75552C0.655984 7.93577 5.59871 12.8713 11.7717 13.2548C12.5894 13.3055 13.2697 12.6252 13.2697 11.8075V10.5555C13.2769 9.82459 12.7269 9.20946 11.996 9.12261V9.12261Z" />
</symbol>

<symbol id="vector3"  width="16" height="12" viewBox="0 0 16 12">
<path d="M14 0H2C1.175 0 0.5075 0.675 0.5075 1.5L0.5 10.5C0.5 11.325 1.175 12 2 12H14C14.825 12 15.5 11.325 15.5 10.5V1.5C15.5 0.675 14.825 0 14 0ZM13.7 3.1875L8.3975 6.5025C8.1575 6.6525 7.8425 6.6525 7.6025 6.5025L2.3 3.1875C2.1125 3.0675 2 2.865 2 2.6475C2 2.145 2.5475 1.845 2.975 2.1075L8 5.25L13.025 2.1075C13.4525 1.845 14 2.145 14 2.6475C14 2.865 13.8875 3.0675 13.7 3.1875Z"/>
</symbol>

<symbol id="vector4"  width="24" height="24" viewBox="0 0 24 24">
<path d="M24 0L0 13.5L7.66994 16.3407L19.5 5.25002L10.5017 17.3896L10.509 17.3923L10.5 17.3896V24.0001L14.8013 18.982L20.2501 21.0001L24 0Z" color="#fff"/>
</symbol>

</defs>

</svg>